<?xml version="1.0" standalone="no"?>
<!DOCTYPE svg PUBLIC "-//W3C//DTD SVG 20010904//EN"
 "http://www.w3.org/TR/2001/REC-SVG-20010904/DTD/svg10.dtd">
<svg version="1.0" xmlns="http://www.w3.org/2000/svg"
 width="512.000000pt" height="512.000000pt" viewBox="0 0 512.000000 512.000000"
 preserveAspectRatio="xMidYMid meet">

<g transform="translate(0.000000,512.000000) scale(0.100000,-0.100000)"
fill="#000000" stroke="none">
<path d="M1052 4955 c-228 -50 -407 -241 -442 -472 -7 -46 -10 -689 -8 -1968
l3 -1900 27 -74 c63 -173 197 -306 367 -364 l66 -22 1462 -3 c1625 -3 1542 -6
1681 64 130 66 236 192 283 336 l24 73 0 1935 0 1935 -24 73 c-64 196 -229
346 -426 387 -101 21 -2916 21 -3013 0z m2974 -300 c64 -19 127 -73 162 -139
l27 -51 0 -1905 0 -1905 -27 -51 c-35 -66 -98 -120 -162 -139 -75 -22 -2857
-22 -2932 0 -64 19 -127 73 -162 139 l-27 51 0 1905 0 1905 27 51 c34 64 98
120 158 139 70 21 2864 22 2936 0z"/>
<path d="M2394 4216 c-213 -52 -399 -238 -449 -448 -39 -165 0 -350 104 -501
l30 -44 -62 -35 c-237 -136 -412 -350 -492 -598 -37 -117 -40 -221 -6 -269 46
-64 -1 -61 1011 -61 1020 0 966 -4 1014 66 32 47 33 92 6 198 -44 172 -135
344 -249 469 -62 67 -183 160 -262 201 l-55 29 42 63 c71 105 104 216 104 345
0 94 -16 160 -61 258 -72 155 -233 286 -401 326 -75 18 -203 18 -274 1z m259
-329 c67 -28 142 -113 163 -184 57 -195 -85 -387 -286 -387 -257 0 -395 303
-224 494 94 103 219 131 347 77z m92 -907 c190 -60 347 -186 448 -361 15 -25
27 -49 27 -52 0 -4 -310 -7 -690 -7 -379 0 -690 3 -690 7 0 26 97 161 160 223
109 107 228 172 374 206 90 20 281 12 371 -16z"/>
<path d="M1304 1799 c-112 -32 -131 -208 -31 -269 31 -19 60 -20 1287 -20
1227 0 1256 1 1287 20 43 26 65 72 65 133 -1 55 -17 85 -66 121 -27 21 -32 21
-1269 23 -732 1 -1255 -2 -1273 -8z"/>
<path d="M1273 1180 c-43 -26 -65 -72 -65 -133 1 -55 17 -85 66 -121 27 -21
30 -21 1286 -21 1256 0 1259 0 1286 21 49 36 65 66 66 121 0 61 -22 107 -65
133 -31 19 -60 20 -1287 20 -1227 0 -1256 -1 -1287 -20z"/>
</g>
</svg>
